<svg xmlns="http://www.w3.org/2000/svg" width="279" height="313" fill="none" viewBox="0 0 279 313" class="is-9 bs-9 lg:is-12 3xl:is-24 lg:bs-16 3xl:bs-24 fill-black dark:fill-white"><path fill="#fff" d="M32.223 37H238.223V267H32.223z"></path><path fill="#fff" d="M32.223 37H238.223V267H32.223z"></path><path fill="#3AD" d="M278.223 0l-26.087 282.567L139.11 313 26.082 282.567 0 0h278.223zm-52.567 57.456H50.826l4.217 34.122h88.682l-4.717 1.963-80.896 33.693 2.682 33.354 78.214.254 41.92.133-2.683 44.473-39.238 11.047v-.035l-.321.089-37.893-9.566-2.3-27.606H63.096l4.6 53.294 71.313 21.088v-.038l.128.038 70.93-20.704 9.201-105.821h-80.457l.198-.086 83.199-35.57 3.448-34.122z"></path><path fill="#3AD" d="M278.223 0l-26.087 282.567L139.11 313 26.082 282.567 0 0h278.223zm-52.567 57.456H50.826l4.217 34.122h88.682l-4.717 1.963-80.896 33.693 2.682 33.354 78.214.254 41.92.133-2.683 44.473-39.238 11.047v-.035l-.321.089-37.893-9.566-2.3-27.606H63.096l4.6 53.294 71.313 21.088v-.038l.128.038 70.93-20.704 9.201-105.821h-80.457l.198-.086 83.199-35.57 3.448-34.122z"></path></svg>