<svg xmlns="http://www.w3.org/2000/svg" width="282" height="313" fill="none" viewBox="0 0 282 313" class="is-9 bs-9 lg:is-12 3xl:is-24 lg:bs-16 3xl:bs-24 fill-black dark:fill-white"><path fill="#fff" d="M38.1 37H244.1V267H38.1z"></path><path fill="#F16529" fill-rule="evenodd" d="M225.909 93.9H90.957l3.225 31.3h128.519c-1.884 27.419-7.583 85.509-9.674 111.942l-72.185 20.319v.061l-.16.076-72.232-25.416L63.5 172.15h35.406l2.506 32.286 39.333 14.664h.096l39.269-14.083 4.039-48.517H61.92c-.59-6.276-8.188-87.765-9.513-93.9H229.07c-.99 10.329-1.996 20.94-3.161 31.3zM0 0l25.637 284.015L140.682 313l115.349-29.565L281.7 0H0z" clip-rule="evenodd"></path></svg>