<svg xmlns="http://www.w3.org/2000/svg" width="361" height="216" fill="none" viewBox="0 0 361 216" class="is-9 bs-9 lg:is-12 3xl:is-24 lg:bs-16 3xl:bs-24 fill-black dark:fill-white"><path fill="#44A8B3" d="M90.25 72c12.033-48 42.117-72 90.25-72 72.2 0 81.225 54 117.325 63 24.067 6 45.125-3 63.175-27-12.033 48-42.117 72-90.25 72-72.2 0-81.225-54-117.325-63-24.067-6-45.125 3-63.175 27zM0 180c12.033-48 42.117-72 90.25-72 72.2 0 81.225 54 117.325 63 24.067 6 45.125-3 63.175-27-12.033 48-42.117 72-90.25 72-72.2 0-81.225-54-117.325-63C39.108 147 18.05 156 0 180z"></path></svg>