<svg xmlns="http://www.w3.org/2000/svg" width="314" height="314" fill="none" viewBox="0 0 314 314" class="is-9 bs-9 lg:is-12 3xl:is-24 lg:bs-16 3xl:bs-24 fill-black dark:fill-white"><path fill="#3178C6" d="M283.336 0H30.664C13.73 0 0 13.729 0 30.664v252.672C0 300.271 13.729 314 30.664 314h252.672C300.271 314 314 300.271 314 283.336V30.664C314 13.73 300.271 0 283.336 0z"></path><path fill="#fff" fill-rule="evenodd" d="M194.373 249.866v30.701c4.991 2.559 10.893 4.477 17.708 5.756 6.815 1.28 13.997 1.919 21.548 1.919 7.359 0 14.349-.703 20.972-2.111 6.622-1.407 12.43-3.725 17.421-6.956 4.99-3.229 8.942-7.451 11.853-12.664 2.911-5.213 4.367-11.656 4.367-19.332 0-5.565-.831-10.441-2.495-14.631a34.197 34.197 0 00-7.199-11.177c-3.135-3.262-6.894-6.188-11.278-8.779-4.383-2.59-9.326-5.037-14.829-7.339-4.031-1.663-7.646-3.278-10.846-4.845-3.199-1.568-5.918-3.166-8.158-4.797-2.24-1.631-3.967-3.358-5.183-5.181-1.215-1.823-1.824-3.886-1.824-6.189 0-2.11.544-4.013 1.632-5.708 1.088-1.695 2.624-3.15 4.607-4.365 1.984-1.215 4.415-2.159 7.294-2.831 2.88-.671 6.079-1.007 9.599-1.007 2.559 0 5.263.192 8.11.576 2.847.383 5.711.975 8.591 1.774 2.879.8 5.678 1.808 8.398 3.023a46.268 46.268 0 017.534 4.221v-28.686c-4.671-1.791-9.774-3.118-15.308-3.982-5.535-.863-11.886-1.295-19.053-1.295-7.295 0-14.205.784-20.732 2.351-6.526 1.567-12.269 4.013-17.229 7.339-4.959 3.326-8.877 7.563-11.757 12.712-2.879 5.149-4.319 11.305-4.319 18.469 0 9.146 2.639 16.95 7.919 23.41 5.278 6.46 13.292 11.928 24.043 16.406a323.626 323.626 0 0111.805 5.085c3.647 1.663 6.799 3.39 9.454 5.181 2.656 1.79 4.751 3.741 6.287 5.852 1.536 2.11 2.304 4.509 2.304 7.196 0 1.983-.48 3.821-1.44 5.516-.96 1.695-2.416 3.166-4.367 4.413-1.952 1.248-4.383 2.223-7.295 2.926-2.912.704-6.318 1.056-10.222 1.056-6.655 0-13.245-1.167-19.772-3.502-6.527-2.334-12.574-5.836-18.14-10.505zm-51.613-75.644h39.385v-25.195H72.367v25.195h39.193v112.18h31.2v-112.18z" clip-rule="evenodd"></path></svg>